# xmcd
# Copyright (C) 1995-1998 Ti Kan
#
# Track frame offsets:
#       150
#       19893
#       34683
#       50055
#
# Disc length: 855 seconds
#
# Revision: 0
# Processed by: cddbd v1.5.2PL0 Copyright (c) Steve Scherf et al.
# Submitted via: CD-Transfer v1.0
#
DISCID=2e035504
DTITLE=Orig. Zillertal Sound - 
DYEAR=10
DGENRE=
TTITLE0=I Sing Für Di An Jodler (10)
TTITLE1=Es Is A Ganz Besondrer Tag (10)
TTITLE2=Tiroler Musig, Tiroler Land (10)
TTITLE3=Melcha Boarisch (10)
EXTD=
EXTT0=
EXTT1=
EXTT2=
EXTT3=
PLAYORDER=
